#!OML:ASF F:\VICON\USERDATA\INSTALL\rory3\rory3.ASF
:FULLY-SPECIFIED
:DEGREES
339
root 0.102353 17.0827 17.5348 -157.622 -36.8431 -179.737
lowerback -14.4069 0.799447 3.71767
upperback -5.07545 -0.00209504 1.57841
thorax 2.72521 -0.222026 -0.457682
lowerneck -10.2434 1.54984 -0.916233
upperneck 44.655 -3.94508 1.69122
head 18.7153 -3.16975 -0.284083
rclavicle -5.05907e-014 5.56597e-015
rhumerus -43.1983 -7.39108 -72.72
rradius 13.1976
rwrist 4.32232
rhand -4.10269 16.7664
rfingers 7.12502
rthumb 21.6553 -12.0426
lclavicle -5.05907e-014 5.56597e-015
lhumerus -47.7906 10.3322 71.8036
lradius 45.8565
lwrist 0.972455
lhand 0.19133 16.9168
lfingers 7.12502
lthumb 25.7736 45.1911
rfemur -32.0721 1.95366 32.7188
rtibia 26.3078
rfoot -43.9748 -32.1968
rtoes 43.0445
lfemur -8.27462 13.1009 -23.8711
ltibia 34.04
lfoot 19.5818 25.0143
ltoes 18.1569
340
root 0.101069 17.0822 17.528 -157.61 -36.7572 -179.744
lowerback -14.2941 0.708009 3.65751
upperback -5.09852 -0.112826 1.65891
thorax 2.63705 -0.278425 -0.357763
lowerneck -10.2642 1.61151 -0.944585
upperneck 44.575 -3.74534 1.56198
head 18.6584 -3.10736 -0.302166
rclavicle -3.72721e-014 9.54166e-015
rhumerus -43.0758 -6.84956 -72.9769
rradius 13.0427
rwrist 3.95443
rhand -5.29902 17.5743
rfingers 7.12502
rthumb 20.5061 -11.3628
lclavicle -3.72721e-014 9.54166e-015
lhumerus -47.8919 10.4913 71.7686
lradius 45.813
lwrist 1.15738
lhand 0.245789 16.7923
lfingers 7.12502
lthumb 25.8258 45.0591
rfemur -32.0864 2.08224 32.6716
rtibia 26.3766
rfoot -44.1718 -32.1285
rtoes 43.1583
lfemur -8.21395 13.0843 -23.88
ltibia 33.9445
lfoot 19.675 24.9745
ltoes 18.1598
341
root 0.0984919 17.0846 17.5261 -157.298 -36.531 -180.163
lowerback -14.2524 0.624435 3.27416
upperback -5.15192 -0.165969 1.60557
thorax 2.55808 -0.30466 -0.206217
lowerneck -10.2609 1.68799 -1.06395
upperneck 44.5947 -3.63583 1.63986
head 18.6714 -3.07874 -0.225409
rclavicle -8.64713e-014 -3.97569e-015
rhumerus -43.088 -6.56893 -73.1097
rradius 13.0693
rwrist 3.46089
rhand -6.07473 17.7884
rfingers 7.12502
rthumb 19.7605 -11.2271
lclavicle -8.64713e-014 -3.97569e-015
lhumerus -47.9071 10.8094 71.6235
lradius 45.4077
lwrist 0.970788
lhand 0.174893 16.2021
lfingers 7.12502
lthumb 25.7579 44.4787
rfemur -32.2064 2.17265 32.2396
rtibia 26.465
rfoot -44.2034 -32.137
rtoes 43.0958
lfemur -8.22193 13.0569 -24.3281
ltibia 33.8248
lfoot 19.9898 24.7647
ltoes 17.3231
342
root 0.0920899 17.0866 17.5273 -157.062 -36.4442 -180.371
lowerback -14.2519 0.648921 3.20843
upperback -5.26006 -0.125357 1.48858
thorax 2.4453 -0.290864 -0.284729
lowerneck -10.1728 1.69126 -0.955783
upperneck 44.6104 -3.68656 1.64386
head 18.6575 -3.08705 -0.252773
rclavicle -2.40529e-014 -7.95139e-016
rhumerus -43.389 -6.92054 -72.9417
rradius 13.1624
rwrist 3.56065
rhand -6.63543 17.946
rfingers 7.12502
rthumb 19.2214 -11.1242
lclavicle -2.40529e-014 -7.95139e-016
lhumerus -47.8475 10.9363 71.391
lradius 44.8904
lwrist 0.771616
lhand 0.113886 15.7438
lfingers 7.12502
lthumb 25.6995 44.0288
rfemur -32.3785 1.8509 32.1338
rtibia 26.5333
rfoot -43.7797 -32.0732
rtoes 42.7646
lfemur -8.29298 12.9879 -24.5895
ltibia 33.7041
lfoot 20.5486 24.3037
ltoes 15.7163
343
root 0.0858712 17.0878 17.5221 -156.994 -36.4684 -180.197
lowerback -14.4751 0.743135 3.39891
upperback -5.28345 -0.0464571 1.4858
thorax 2.5424 -0.256341 -0.382281
lowerneck -10.2255 1.62711 -0.861246
upperneck 44.6036 -3.76767 1.56152
head 18.6658 -3.109 -0.323533
rclavicle 5.77469e-014 -1.51076e-014
rhumerus -43.5 -7.26884 -72.7743
rradius 13.0724
rwrist 3.75541
rhand -7.23216 18.1978
rfingers 7.12502
rthumb 18.6475 -10.9284
lclavicle 5.77469e-014 -1.51076e-014
lhumerus -47.7075 10.8676 71.4052
lradius 44.6291
lwrist 0.788743
lhand 0.12847 15.8772
lfingers 7.12502
lthumb 25.7134 44.1602
rfemur -32.5581 1.82323 32.2785
rtibia 26.5701
rfoot -43.8268 -31.8468
rtoes 42.8259
lfemur -8.42215 12.9042 -24.4685
ltibia 33.6108
lfoot 20.744 24.171
ltoes 15.3203
344
root 0.0847647 17.0884 17.5133 -157.09 -36.4716 -179.943
lowerback -14.6237 0.849537 3.53533
upperback -5.22373 0.0635523 1.53963
thorax 2.68812 -0.199855 -0.384584
lowerneck -10.3647 1.50704 -0.944299
upperneck 44.5414 -3.89283 1.57169
head 18.6694 -3.15718 -0.323488
rclavicle -1.55052e-014 -2.06736e-014
rhumerus -43.4473 -6.9184 -73.1462
rradius 13.0205
rwrist 2.92069
rhand -7.94507 18.3144
rfingers 7.12502
rthumb 17.9617 -10.8761
lclavicle -1.55052e-014 -2.06736e-014
lhumerus -47.4799 10.621 71.6599
lradius 44.5269
lwrist 1.02964
lhand 0.0945475 16.1055
lfingers 7.12502
lthumb 25.6809 44.3932
rfemur -32.5602 2.10027 32.4017
rtibia 26.5064
rfoot -43.95 -31.9523
rtoes 42.8436
lfemur -8.46478 12.861 -24.2287
ltibia 33.5951
lfoot 20.6587 24.3398
ltoes 15.9929
345
root 0.0821884 17.0902 17.509 -157.03 -36.4098 -179.906
lowerback -14.6632 0.903064 3.5774
upperback -5.22579 0.124906 1.53115
thorax 2.70914 -0.17028 -0.406845
lowerneck -10.5078 1.45662 -1.04594
upperneck 44.539 -3.93921 1.61059
head 18.7121 -3.17976 -0.295864
rclavicle 7.07673e-014 -7.95139e-015
rhumerus -43.5035 -6.23063 -73.7587
rradius 13.1396
rwrist 1.71212
rhand -9.03338 18.5189
rfingers 7.12502
rthumb 16.9143 -10.7646
lclavicle 7.07673e-014 -7.95139e-015
lhumerus -47.3054 10.5866 71.7568
lradius 44.4038
lwrist 1.36757
lhand 0.157259 16.4115
lfingers 7.12502
lthumb 25.741 44.6905
rfemur -32.5696 2.20054 32.3931
rtibia 26.3599
rfoot -43.7212 -32.2329
rtoes 42.5696
lfemur -8.58218 12.8516 -24.2281
ltibia 33.6335
lfoot 20.6451 24.4154
ltoes 16.0902
346
root 0.0781457 17.0915 17.5053 -157.032 -36.4 -179.765
lowerback -14.6876 0.914851 3.70517
upperback -5.27656 0.113073 1.56654
thorax 2.66867 -0.181535 -0.443737
lowerneck -10.5342 1.50838 -1.10615
upperneck 44.6166 -3.91486 1.7127
head 18.7741 -3.17313 -0.23599
rclavicle 1.02374e-014 -1.27222e-014
rhumerus -43.6411 -5.44121 -74.4097
rradius 13.2253
rwrist 0.537233
rhand -10.147 18.8683
rfingers 7.12502
rthumb 15.8421 -10.5036
lclavicle 1.02374e-014 -1.27222e-014
lhumerus -47.2535 10.8248 71.6373
lradius 44.0724
lwrist 1.3733
lhand 0.180368 16.747
lfingers 7.12502
lthumb 25.7631 45.0228
rfemur -32.5585 2.09352 32.5582
rtibia 26.2146
rfoot -43.4814 -32.1198
rtoes 42.6973
lfemur -8.66836 12.7762 -24.1172
ltibia 33.6711
lfoot 20.723 24.2693
ltoes 15.6836
347
root 0.0748829 17.0904 17.4999 -157.135 -36.437 -179.497
lowerback -14.7645 0.901149 3.88673
upperback -5.30993 0.0536163 1.64794
thorax 2.6728 -0.216171 -0.470601
lowerneck -10.4295 1.5941 -0.982465
upperneck 44.6509 -3.82823 1.6741
head 18.7612 -3.13213 -0.262534
rclavicle 9.67087e-014 -2.62396e-014
rhumerus -43.7289 -4.63881 -75.1216
rradius 13.3093
rwrist -0.804076
rhand -11.1688 18.9932
rfingers 7.12502
rthumb 14.8578 -10.4541
lclavicle 9.67087e-014 -2.62396e-014
lhumerus -47.3312 11.0684 71.4848
lradius 43.7449
lwrist 1.21767
lhand 0.0344679 16.7963
lfingers 7.12502
lthumb 25.6234 45.0923
rfemur -32.5231 2.13701 32.8014
rtibia 26.1124
rfoot -43.4746 -32.0991
rtoes 42.7905
lfemur -8.69485 12.7111 -23.8517
ltibia 33.6882
lfoot 20.7441 24.0735
ltoes 15.59
348
root 0.0690992 17.0907 17.4932 -157.184 -36.4959 -179.359
lowerback -14.8401 0.910714 4.0387
upperback -5.393 0.0317944 1.63861
thorax 2.62512 -0.235044 -0.569493
lowerneck -10.1366 1.62044 -0.839539
upperneck 44.6219 -3.86567 1.67573
head 18.6601 -3.13796 -0.291294
rclavicle 3.598e-014 1.59028e-014
rhumerus -44.0175 -4.33352 -75.5346
rradius 13.4922
rwrist -1.8241
rhand -12.0691 18.8433
rfingers 7.12502
rthumb 13.9904 -10.6659
lclavicle 3.598e-014 1.59028e-014
lhumerus -47.6565 10.7388 71.427
lradius 43.6805
lwrist 1.33379
lhand -0.0802748 16.5199
lfingers 7.12502
lthumb 25.5135 44.8317
rfemur -32.5093 2.05089 32.9574
rtibia 26.0767
rfoot -43.333 -32.2516
rtoes 42.504
lfemur -8.66493 12.6673 -23.6985
ltibia 33.6571
lfoot 20.9338 23.8099
ltoes 15.2549
349
root 0.0619637 17.0887 17.4858 -157.147 -36.5513 -179.394
lowerback -14.8929 0.879345 4.03647
upperback -5.48371 -0.0192692 1.62381
thorax 2.55603 -0.267319 -0.592241
lowerneck -9.777 1.62138 -0.813736
upperneck 44.5334 -3.9147 1.71755
head 18.5065 -3.1633 -0.278289
rclavicle -7.44449e-014 -4.29375e-014
rhumerus -44.2822 -4.75295 -75.279
rradius 13.4948
rwrist -1.84123
rhand -12.9657 18.8608
rfingers 7.12502
rthumb 13.1263 -10.706
lclavicle -7.44449e-014 -4.29375e-014
lhumerus -47.9858 10.3516 71.4749
lradius 43.6083
lwrist 1.63494
lhand -0.242196 16.4278
lfingers 7.12502
lthumb 25.3584 44.7617
rfemur -32.505 1.93866 32.957
rtibia 26.1046
rfoot -43.3675 -32.0837
rtoes 42.5634
lfemur -8.57294 12.5922 -23.6751
ltibia 33.591
lfoot 20.8506 23.773
ltoes 15.45
350
root 0.0593827 17.088 17.4766 -157.056 -36.4291 -179.597
lowerback -14.7688 0.746053 3.72273
upperback -5.50276 -0.144592 1.6891
thorax 2.46622 -0.327411 -0.368098
lowerneck -9.83955 1.67899 -0.961421
upperneck 44.5275 -3.79773 1.76364
head 18.5201 -3.13609 -0.210398
rclavicle 2.43511e-015 -2.54444e-014
rhumerus -44.3147 -4.60124 -75.2983
rradius 13.5582
rwrist -2.17019
rhand -13.9361 18.6611
rfingers 7.12502
rthumb 12.1907 -10.9636
lclavicle 2.43511e-015 -2.54444e-014
lhumerus -48.1458 10.5311 71.5083
lradius 43.364
lwrist 1.76269
lhand -0.522018 16.684
lfingers 7.12502
lthumb 25.0903 45.0556
rfemur -32.5279 2.13815 32.6993
rtibia 26.2397
rfoot -43.5895 -32.19
rtoes 42.5451
lfemur -8.42262 12.599 -23.831
ltibia 33.4491
lfoot 20.9795 23.5894
ltoes 15.0648
351
root 0.0581516 17.0871 17.4683 -156.983 -36.3111 -179.767
lowerback -14.5808 0.754894 3.50634
upperback -5.56375 -0.0877178 1.62675
thorax 2.30376 -0.300208 -0.301849
lowerneck -10.0596 1.69676 -0.975536
upperneck 44.7302 -3.87657 1.89201
head 18.7199 -3.15847 -0.172107
rclavicle 2.73329e-014 2.14687e-014
rhumerus -44.4909 -4.96711 -75.1751
rradius 13.4598
rwrist -2.20131
rhand -14.8626 18.5623
rfingers 7.12502
rthumb 11.2973 -11.1134
lclavicle 2.73329e-014 2.14687e-014
lhumerus -48.1837 10.239 71.6388
lradius 43.1231
lwrist 2.03236
lhand -0.815575 17.0561
lfingers 7.12502
lthumb 24.809 45.4668
rfemur -32.5503 2.2674 32.5007
rtibia 26.3697
rfoot -43.6869 -32.2461
rtoes 42.5852
lfemur -8.29056 12.6372 -23.9718
ltibia 33.3193
lfoot 21.2886 23.3554
ltoes 14.3391
352
root 0.056108 17.0869 17.461 -156.851 -36.232 -180.012
lowerback -14.4556 0.784265 3.30743
upperback -5.61899 -0.00819741 1.51056
thorax 2.18121 -0.261212 -0.298329
lowerneck -10.1405 1.67248 -0.98811
upperneck 44.8215 -3.98739 2.0003
head 18.8106 -3.19352 -0.142601
rclavicle 4.15957e-014 -2.8625e-014
rhumerus -44.7152 -5.36191 -75.0778
rradius 13.4323
rwrist -2.24619
rhand -16.2626 19.0067
rfingers 7.12502
rthumb 9.94681 -10.7383
lclavicle 4.15957e-014 -2.8625e-014
lhumerus -48.1853 9.89601 71.7509
lradius 42.7917
lwrist 2.16408
lhand -1.0371 17.1735
lfingers 7.12502
lthumb 24.5966 45.6133
rfemur -32.5671 2.26632 32.2731
rtibia 26.4597
rfoot -43.7103 -32.2384
rtoes 42.4819
lfemur -8.1734 12.5675 -24.1621
ltibia 33.2071
lfoot 21.2732 23.2955
ltoes 14.4113
353
root 0.0525594 17.0868 17.4553 -156.831 -36.2856 -179.917
lowerback -14.3964 0.675414 3.33375
upperback -5.66447 -0.163951 1.65801
thorax 2.09781 -0.342419 -0.183809
lowerneck -10.2824 1.72888 -1.21893
upperneck 44.8374 -3.80993 1.98652
head 18.8568 -3.16126 -0.0779056
rclavicle -3.7123e-014 1.59028e-015
rhumerus -44.6472 -4.73671 -75.4264
rradius 13.3504
rwrist -3.05834
rhand -18.1733 20.0641
rfingers 7.12502
rthumb 8.10308 -9.76052
lclavicle -3.7123e-014 1.59028e-015
lhumerus -48.3061 10.2758 71.7629
lradius 42.4351
lwrist 2.10078
lhand -1.31601 17.3613
lfingers 7.12502
lthumb 24.3293 45.8372
rfemur -32.609 2.26497 32.376
rtibia 26.4584
rfoot -43.8143 -32.2358
rtoes 42.3679
lfemur -8.19469 12.5071 -24.0178
ltibia 33.1575
lfoot 21.3464 23.1453
ltoes 14.5199
